v -1.1 -0.5501909338 -1.8
v -0.9625 -0.6508778856 -1.8
v -0.9625 -0.6508778856 -1.575
v -1.1 -0.5501909338 -1.575
v -0.825 -0.7234200287 -1.8
v -0.825 -0.7234200287 -1.575
v -0.6875 -0.7793504474 -1.8
v -0.6875 -0.7793504474 -1.575
v -0.55 -0.8265974139 -1.8
v -0.55 -0.8265974139 -1.575
v -0.4125 -0.8555277141 -1.8
v -0.4125 -0.8555277141 -1.575
v -0.275 -0.8823413942 -1.8
v -0.275 -0.8823413942 -1.575
v -0.1375 -0.8912940635 -1.8
v -0.1375 -0.8912940635 -1.575
v 0 -0.9 -1.8
v 0 -0.9 -1.575
v 0.1375 -0.8912940635 -1.8
v 0.1375 -0.8912940635 -1.575
v 0.275 -0.8823413942 -1.8
v 0.275 -0.8823413942 -1.575
v 0.4125 -0.8555277141 -1.8
v 0.4125 -0.8555277141 -1.575
v 0.55 -0.8265974139 -1.8
v 0.55 -0.8265974139 -1.575
v 0.6875 -0.7793504474 -1.8
v 0.6875 -0.7793504474 -1.575
v 0.825 -0.7234200287 -1.8
v 0.825 -0.7234200287 -1.575
v 0.9625 -0.6508778856 -1.8
v 0.9625 -0.6508778856 -1.575
v 1.1 -0.5501909338 -1.8
v 1.1 -0.5501909338 -1.575
v -0.9625 -0.6508778856 -1.35
v -1.1 -0.5501909338 -1.35
v -0.825 -0.7234200287 -1.35
v -0.6875 -0.7793504474 -1.35
v -0.55 -0.8265974139 -1.35
v -0.4125 -0.8555277141 -1.35
v -0.275 -0.8823413942 -1.35
v -0.1375 -0.8912940635 -1.35
v 0 -0.9 -1.35
v 0.1375 -0.8912940635 -1.35
v 0.275 -0.8823413942 -1.35
v 0.4125 -0.8555277141 -1.35
v 0.55 -0.8265974139 -1.35
v 0.6875 -0.7793504474 -1.35
v 0.825 -0.7234200287 -1.35
v 0.9625 -0.6508778856 -1.35
v 1.1 -0.5501909338 -1.35
v -0.9625 -0.6508778856 -1.125
v -1.1 -0.5501909338 -1.125
v -0.825 -0.7234200287 -1.125
v -0.6875 -0.7793504474 -1.125
v -0.55 -0.8265974139 -1.125
v -0.4125 -0.8555277141 -1.125
v -0.275 -0.8823413942 -1.125
v -0.1375 -0.8912940635 -1.125
v 0 -0.9 -1.125
v 0.1375 -0.8912940635 -1.125
v 0.275 -0.8823413942 -1.125
v 0.4125 -0.8555277141 -1.125
v 0.55 -0.8265974139 -1.125
v 0.6875 -0.7793504474 -1.125
v 0.825 -0.7234200287 -1.125
v 0.9625 -0.6508778856 -1.125
v 1.1 -0.5501909338 -1.125
v -0.9625 -0.6508778856 -0.9
v -1.1 -0.5501909338 -0.9
v -0.825 -0.7234200287 -0.9
v -0.6875 -0.7793504474 -0.9
v -0.55 -0.8265974139 -0.9
v -0.4125 -0.8555277141 -0.9
v -0.275 -0.8823413942 -0.9
v -0.1375 -0.8912940635 -0.9
v 0 -0.9 -0.9
v 0.1375 -0.8912940635 -0.9
v 0.275 -0.8823413942 -0.9
v 0.4125 -0.8555277141 -0.9
v 0.55 -0.8265974139 -0.9
v 0.6875 -0.7793504474 -0.9
v 0.825 -0.7234200287 -0.9
v 0.9625 -0.6508778856 -0.9
v 1.1 -0.5501909338 -0.9
v -0.9625 -0.6508778856 -0.675
v -1.1 -0.5501909338 -0.675
v -0.825 -0.7234200287 -0.675
v -0.6875 -0.7793504474 -0.675
v -0.55 -0.8265974139 -0.675
v 0.6875 -0.7793504474 -0.675
v 0.55 -0.8265974139 -0.675
v 0.825 -0.7234200287 -0.675
v 0.9625 -0.6508778856 -0.675
v 1.1 -0.5501909338 -0.675
v -0.9625 -0.6508778856 -0.45
v -1.1 -0.5501909338 -0.45
v -0.825 -0.7234200287 -0.45
v -0.6875 -0.7793504474 -0.45
v -0.55 -0.8265974139 -0.45
v 0.6875 -0.7793504474 -0.45
v 0.55 -0.8265974139 -0.45
v 0.825 -0.7234200287 -0.45
v 0.9625 -0.6508778856 -0.45
v 1.1 -0.5501909338 -0.45
v -0.9625 -0.6508778856 -0.225
v -1.1 -0.5501909338 -0.225
v -0.825 -0.7234200287 -0.225
v -0.6875 -0.7793504474 -0.225
v -0.55 -0.8265974139 -0.225
v 0.6875 -0.7793504474 -0.225
v 0.55 -0.8265974139 -0.225
v 0.825 -0.7234200287 -0.225
v 0.9625 -0.6508778856 -0.225
v 1.1 -0.5501909338 -0.225
v -0.9625 -0.6508778856 0
v -1.1 -0.5501909338 0
v -0.825 -0.7234200287 0
v -0.6875 -0.7793504474 0
v -0.55 -0.8265974139 0
v 0.6875 -0.7793504474 0
v 0.55 -0.8265974139 0
v 0.825 -0.7234200287 0
v 0.9625 -0.6508778856 0
v 1.1 -0.5501909338 0
v -0.9625 -0.6508778856 0.225
v -1.1 -0.5501909338 0.225
v -0.825 -0.7234200287 0.225
v -0.6875 -0.7793504474 0.225
v -0.55 -0.8265974139 0.225
v 0.6875 -0.7793504474 0.225
v 0.55 -0.8265974139 0.225
v 0.825 -0.7234200287 0.225
v 0.9625 -0.6508778856 0.225
v 1.1 -0.5501909338 0.225
v -0.9625 -0.6508778856 0.45
v -1.1 -0.5501909338 0.45
v -0.825 -0.7234200287 0.45
v -0.6875 -0.7793504474 0.45
v -0.55 -0.8265974139 0.45
v 0.6875 -0.7793504474 0.45
v 0.55 -0.8265974139 0.45
v 0.825 -0.7234200287 0.45
v 0.9625 -0.6508778856 0.45
v 1.1 -0.5501909338 0.45
v -0.9625 -0.6508778856 0.675
v -1.1 -0.5501909338 0.675
v -0.825 -0.7234200287 0.675
v -0.6875 -0.7793504474 0.675
v -0.55 -0.8265974139 0.675
v 0.6875 -0.7793504474 0.675
v 0.55 -0.8265974139 0.675
v 0.825 -0.7234200287 0.675
v 0.9625 -0.6508778856 0.675
v 1.1 -0.5501909338 0.675
v -0.9625 -0.6508778856 0.9
v -1.1 -0.5501909338 0.9
v -0.825 -0.7234200287 0.9
v -0.6875 -0.7793504474 0.9
v -0.55 -0.8265974139 0.9
v 0.6875 -0.7793504474 0.9
v 0.55 -0.8265974139 0.9
v 0.825 -0.7234200287 0.9
v 0.9625 -0.6508778856 0.9
v 1.1 -0.5501909338 0.9
v -0.9625 -0.6508778856 1.125
v -1.1 -0.5501909338 1.125
v -0.825 -0.7234200287 1.125
v -0.6875 -0.7793504474 1.125
v -0.55 -0.8265974139 1.125
v -0.4125 -0.8555277141 0.9
v -0.4125 -0.8555277141 1.125
v -0.275 -0.8823413942 0.9
v -0.275 -0.8823413942 1.125
v -0.1375 -0.8912940635 0.9
v -0.1375 -0.8912940635 1.125
v 0 -0.9 0.9
v 0 -0.9 1.125
v 0.1375 -0.8912940635 0.9
v 0.1375 -0.8912940635 1.125
v 0.275 -0.8823413942 0.9
v 0.275 -0.8823413942 1.125
v 0.4125 -0.8555277141 0.9
v 0.4125 -0.8555277141 1.125
v 0.55 -0.8265974139 1.125
v 0.6875 -0.7793504474 1.125
v 0.825 -0.7234200287 1.125
v 0.9625 -0.6508778856 1.125
v 1.1 -0.5501909338 1.125
v -0.9625 -0.6508778856 1.35
v -1.1 -0.5501909338 1.35
v -0.825 -0.7234200287 1.35
v -0.6875 -0.7793504474 1.35
v -0.55 -0.8265974139 1.35
v -0.4125 -0.8555277141 1.35
v -0.275 -0.8823413942 1.35
v -0.1375 -0.8912940635 1.35
v 0 -0.9 1.35
v 0.1375 -0.8912940635 1.35
v 0.275 -0.8823413942 1.35
v 0.4125 -0.8555277141 1.35
v 0.55 -0.8265974139 1.35
v 0.6875 -0.7793504474 1.35
v 0.825 -0.7234200287 1.35
v 0.9625 -0.6508778856 1.35
v 1.1 -0.5501909338 1.35
v -0.9625 -0.6508778856 1.575
v -1.1 -0.5501909338 1.575
v -0.825 -0.7234200287 1.575
v -0.6875 -0.7793504474 1.575
v -0.55 -0.8265974139 1.575
v -0.4125 -0.8555277141 1.575
v -0.275 -0.8823413942 1.575
v -0.1375 -0.8912940635 1.575
v 0 -0.9 1.575
v 0.1375 -0.8912940635 1.575
v 0.275 -0.8823413942 1.575
v 0.4125 -0.8555277141 1.575
v 0.55 -0.8265974139 1.575
v 0.6875 -0.7793504474 1.575
v 0.825 -0.7234200287 1.575
v 0.9625 -0.6508778856 1.575
v 1.1 -0.5501909338 1.575
v -0.9625 -0.6508778856 1.8
v -1.1 -0.5501909338 1.8
v -0.825 -0.7234200287 1.8
v -0.6875 -0.7793504474 1.8
v -0.55 -0.8265974139 1.8
v -0.4125 -0.8555277141 1.8
v -0.275 -0.8823413942 1.8
v -0.1375 -0.8912940635 1.8
v 0 -0.9 1.8
v 0.1375 -0.8912940635 1.8
v 0.275 -0.8823413942 1.8
v 0.4125 -0.8555277141 1.8
v 0.55 -0.8265974139 1.8
v 0.6875 -0.7793504474 1.8
v 0.825 -0.7234200287 1.8
v 0.9625 -0.6508778856 1.8
v 1.1 -0.5501909338 1.8
f 1 2 3 4
f 2 5 6 3
f 5 7 8 6
f 7 9 10 8
f 9 11 12 10
f 11 13 14 12
f 13 15 16 14
f 15 17 18 16
f 17 19 20 18
f 19 21 22 20
f 21 23 24 22
f 23 25 26 24
f 25 27 28 26
f 27 29 30 28
f 29 31 32 30
f 31 33 34 32
f 4 3 35 36
f 3 6 37 35
f 6 8 38 37
f 8 10 39 38
f 10 12 40 39
f 12 14 41 40
f 14 16 42 41
f 16 18 43 42
f 18 20 44 43
f 20 22 45 44
f 22 24 46 45
f 24 26 47 46
f 26 28 48 47
f 28 30 49 48
f 30 32 50 49
f 32 34 51 50
f 36 35 52 53
f 35 37 54 52
f 37 38 55 54
f 38 39 56 55
f 39 40 57 56
f 40 41 58 57
f 41 42 59 58
f 42 43 60 59
f 43 44 61 60
f 44 45 62 61
f 45 46 63 62
f 46 47 64 63
f 47 48 65 64
f 48 49 66 65
f 49 50 67 66
f 50 51 68 67
f 53 52 69 70
f 52 54 71 69
f 54 55 72 71
f 55 56 73 72
f 56 57 74 73
f 57 58 75 74
f 58 59 76 75
f 59 60 77 76
f 60 61 78 77
f 61 62 79 78
f 62 63 80 79
f 63 64 81 80
f 64 65 82 81
f 65 66 83 82
f 66 67 84 83
f 67 68 85 84
f 70 69 86 87
f 69 71 88 86
f 71 72 89 88
f 72 73 90 89
f 81 82 91 92
f 82 83 93 91
f 83 84 94 93
f 84 85 95 94
f 87 86 96 97
f 86 88 98 96
f 88 89 99 98
f 89 90 100 99
f 92 91 101 102
f 91 93 103 101
f 93 94 104 103
f 94 95 105 104
f 97 96 106 107
f 96 98 108 106
f 98 99 109 108
f 99 100 110 109
f 102 101 111 112
f 101 103 113 111
f 103 104 114 113
f 104 105 115 114
f 107 106 116 117
f 106 108 118 116
f 108 109 119 118
f 109 110 120 119
f 112 111 121 122
f 111 113 123 121
f 113 114 124 123
f 114 115 125 124
f 117 116 126 127
f 116 118 128 126
f 118 119 129 128
f 119 120 130 129
f 122 121 131 132
f 121 123 133 131
f 123 124 134 133
f 124 125 135 134
f 127 126 136 137
f 126 128 138 136
f 128 129 139 138
f 129 130 140 139
f 132 131 141 142
f 131 133 143 141
f 133 134 144 143
f 134 135 145 144
f 137 136 146 147
f 136 138 148 146
f 138 139 149 148
f 139 140 150 149
f 142 141 151 152
f 141 143 153 151
f 143 144 154 153
f 144 145 155 154
f 147 146 156 157
f 146 148 158 156
f 148 149 159 158
f 149 150 160 159
f 152 151 161 162
f 151 153 163 161
f 153 154 164 163
f 154 155 165 164
f 157 156 166 167
f 156 158 168 166
f 158 159 169 168
f 159 160 170 169
f 160 171 172 170
f 171 173 174 172
f 173 175 176 174
f 175 177 178 176
f 177 179 180 178
f 179 181 182 180
f 181 183 184 182
f 183 162 185 184
f 162 161 186 185
f 161 163 187 186
f 163 164 188 187
f 164 165 189 188
f 167 166 190 191
f 166 168 192 190
f 168 169 193 192
f 169 170 194 193
f 170 172 195 194
f 172 174 196 195
f 174 176 197 196
f 176 178 198 197
f 178 180 199 198
f 180 182 200 199
f 182 184 201 200
f 184 185 202 201
f 185 186 203 202
f 186 187 204 203
f 187 188 205 204
f 188 189 206 205
f 191 190 207 208
f 190 192 209 207
f 192 193 210 209
f 193 194 211 210
f 194 195 212 211
f 195 196 213 212
f 196 197 214 213
f 197 198 215 214
f 198 199 216 215
f 199 200 217 216
f 200 201 218 217
f 201 202 219 218
f 202 203 220 219
f 203 204 221 220
f 204 205 222 221
f 205 206 223 222
f 208 207 224 225
f 207 209 226 224
f 209 210 227 226
f 210 211 228 227
f 211 212 229 228
f 212 213 230 229
f 213 214 231 230
f 214 215 232 231
f 215 216 233 232
f 216 217 234 233
f 217 218 235 234
f 218 219 236 235
f 219 220 237 236
f 220 221 238 237
f 221 222 239 238
f 222 223 240 239
